<svg xmlns="http://www.w3.org/2000/svg" width="9.31" height="12.207" viewBox="0 0 9.31 12.207">
  <path id="Path_287" data-name="Path 287" d="M175.71,130.605l-5.7-4.095a1.737,1.737,0,0,0-1.848-.239,1.668,1.668,0,0,0-.881,1.6v8.667a1.75,1.75,0,0,0,.881,1.6,2.361,2.361,0,0,0,.722.159,1.58,1.58,0,0,0,1.126-.484l5.7-4.095a1.947,1.947,0,0,0,.881-1.6A1.912,1.912,0,0,0,175.71,130.605Zm-.961,1.922-5.7,4.095a.278.278,0,0,0-.159.08v-8.985c.08,0,.08.08.239.159l5.7,4.095c.08,0,.159.159.159.239A.426.426,0,0,1,174.749,132.527Z" transform="translate(-167.282 -126.098)" fill="#fff"/>
</svg>
