<svg xmlns="http://www.w3.org/2000/svg" width="7.474" height="9.799" viewBox="0 0 7.474 9.799">
  <path id="Path_287" data-name="Path 287" d="M174.048,129.716l-4.575-3.287a1.394,1.394,0,0,0-1.484-.192,1.339,1.339,0,0,0-.708,1.287v6.958a1.4,1.4,0,0,0,.708,1.287,1.9,1.9,0,0,0,.58.128,1.268,1.268,0,0,0,.9-.388l4.575-3.287a1.563,1.563,0,0,0,.708-1.287A1.535,1.535,0,0,0,174.048,129.716Zm-.771,1.543-4.575,3.287a.223.223,0,0,0-.128.064V127.4c.064,0,.064.064.192.128l4.574,3.287c.064,0,.128.128.128.192A.342.342,0,0,1,173.277,131.259Z" transform="translate(-167.282 -126.098)" fill="#2a4369"/>
</svg>
