<svg xmlns="http://www.w3.org/2000/svg" width="226.564" height="54.247" viewBox="0 0 226.564 54.247">
  <g id="Group_2561" data-name="Group 2561" transform="translate(545.677 -41.927)">
    <path id="Path_4651" data-name="Path 4651" d="M198.613,104.719c8.324.491,15.32,4.608,25.853,2.366,3.59,25.632-8.214,41.438-25.853,51.881Z" transform="translate(-710.568 -62.792)" fill="#6e2a38" fill-rule="evenodd"/>
    <path id="Path_4652" data-name="Path 4652" d="M186.38,104.719c-8.324.491-15.32,4.608-25.854,2.366-3.59,25.632,8.215,41.438,25.854,51.881Z" transform="translate(-698.335 -62.792)" fill="#3a3964" fill-rule="evenodd"/>
    <path id="Path_4653" data-name="Path 4653" d="M180.935,157.554c-16.072,5.475-29.074,6.3-31.286,1.353-1.438-3.212,1.965-8.226,8.57-13.654-2.867,2.751-4.515,5.18-4.5,6.937.052,4.6,11.489,3.012,26.251-3.375Z" transform="translate(-695 -75.595)" fill="#3a3964" fill-rule="evenodd"/>
    <path id="Path_4654" data-name="Path 4654" d="M228.43,112.192c8.38-1.269,14.323-.468,15.766,2.7,2.727,5.99-11.66,18.242-32.4,27.766l-1.028-9.183c4.25-1.846,35.733-18.94,17.658-21.281" transform="translate(-714.409 -64.971)" fill="#6e2a38" fill-rule="evenodd"/>
    <circle id="Ellipse_1" data-name="Ellipse 1" cx="12.876" cy="12.876" r="12.876" transform="translate(-524.99 51.148)" fill="#231f20"/>
    <circle id="Ellipse_2" data-name="Ellipse 2" cx="10.353" cy="10.353" r="10.353" transform="translate(-522.467 53.671)" fill="#fff"/>
    <circle id="Ellipse_3" data-name="Ellipse 3" cx="4.641" cy="4.641" r="4.641" transform="translate(-516.756 59.382)" fill="#231f20"/>
    <path id="Path_4655" data-name="Path 4655" d="M176.723,120.787a4.769,4.769,0,0,0-1.823,1.693c-.414.82-.155,2.145.8,1.741.905-.385,1.014-3.009,1.028-3.434" transform="translate(-703.018 -67.867)" fill="#fff" fill-rule="evenodd"/>
    <path id="Path_4656" data-name="Path 4656" d="M173.017,122.457a5.872,5.872,0,0,0-.435,2.358c.087.838.82,1.593,1.252.7.411-.854-.643-2.75-.817-3.054" transform="translate(-702.342 -68.395)" fill="#fff" fill-rule="evenodd"/>
    <path id="Path_4657" data-name="Path 4657" d="M177.242,126.24a4.194,4.194,0,0,1-1.429,1.609c-.623.3-1.5-.155-1.079-1.064.4-.865,2.213-.594,2.507-.545" transform="translate(-702.992 -69.565)" fill="#fff" fill-rule="evenodd"/>
    <path id="Path_4658" data-name="Path 4658" d="M171.388,125.829a6.223,6.223,0,0,0-.461,2.5c.093.888.87,1.688,1.327.738.436-.905-.681-2.913-.865-3.236" transform="translate(-701.819 -69.46)" fill="#fff" fill-rule="evenodd"/>
    <path id="Path_4659" data-name="Path 4659" d="M175.8,129.37a4.45,4.45,0,0,1-1.514,1.706c-.661.321-1.586-.164-1.145-1.127.42-.917,2.347-.63,2.659-.578" transform="translate(-702.488 -70.552)" fill="#fff" fill-rule="evenodd"/>
    <path id="Path_4660" data-name="Path 4660" d="M170.213,129.776a7.015,7.015,0,0,0-.034,2.762c.252.913,1.2,1.55,1.5.424.29-1.073-1.217-2.9-1.465-3.186" transform="translate(-701.55 -70.706)" fill="#fff" fill-rule="evenodd"/>
    <path id="Path_4661" data-name="Path 4661" d="M175.4,132.3a5.3,5.3,0,0,1-1.241,2.172c-.615.507-1.639.246-1.359-.872.268-1.065,2.274-1.272,2.6-1.3" transform="translate(-702.4 -71.502)" fill="#fff" fill-rule="evenodd"/>
    <path id="Path_4662" data-name="Path 4662" d="M175.356,135.3a6.187,6.187,0,0,1-.878,2.548c-.532.678-1.6.673-1.511-.547.088-1.161,2.067-1.888,2.389-2" transform="translate(-702.466 -72.449)" fill="#fff" fill-rule="evenodd"/>
    <path id="Path_4663" data-name="Path 4663" d="M169.1,134.367a7.28,7.28,0,0,0,.818,2.776c.523.795,1.621.993,1.565-.274-.053-1.206-2.057-2.326-2.383-2.5" transform="translate(-701.247 -72.156)" fill="#fff" fill-rule="evenodd"/>
    <path id="Path_4664" data-name="Path 4664" d="M175.452,138.639a6.941,6.941,0,0,1-.554,2.828c-.452.813-1.547,1.026-1.617-.262-.066-1.226,1.857-2.384,2.171-2.566" transform="translate(-702.567 -73.506)" fill="#fff" fill-rule="evenodd"/>
    <path id="Path_4665" data-name="Path 4665" d="M168.923,139.1a7.69,7.69,0,0,0,1.231,2.888c.664.772,1.873.779,1.654-.6-.208-1.312-2.51-2.159-2.884-2.29" transform="translate(-701.191 -73.651)" fill="#fff" fill-rule="evenodd"/>
    <path id="Path_4666" data-name="Path 4666" d="M176.531,141.749a7.91,7.91,0,0,1-.141,3.152c-.347.974-1.461,1.459-1.733.1-.26-1.294,1.574-2.983,1.874-3.252" transform="translate(-702.994 -74.488)" fill="#fff" fill-rule="evenodd"/>
    <path id="Path_4667" data-name="Path 4667" d="M169.521,144.231a7.476,7.476,0,0,0,1.688,2.728c.792.654,2.028.389,1.6-1-.409-1.319-2.884-1.68-3.286-1.732" transform="translate(-701.38 -75.272)" fill="#fff" fill-rule="evenodd"/>
    <path id="Path_4668" data-name="Path 4668" d="M177.9,144.973a8.524,8.524,0,0,1,.607,3.281c-.113,1.123-1.1,2.018-1.7.724-.564-1.233.854-3.622,1.088-4" transform="translate(-703.64 -75.506)" fill="#fff" fill-rule="evenodd"/>
    <path id="Path_4669" data-name="Path 4669" d="M171.016,150.108a6.589,6.589,0,0,0,2.469,2.078c.978.327,2.128-.489,1.3-1.732-.79-1.184-3.354-.469-3.767-.346" transform="translate(-701.852 -77.025)" fill="#fff" fill-rule="evenodd"/>
    <path id="Path_4670" data-name="Path 4670" d="M180.1,147.841a8.8,8.8,0,0,1,1.173,3.309c.07,1.214-.8,2.408-1.631,1.19-.788-1.16.28-4.037.458-4.5" transform="translate(-704.486 -76.412)" fill="#fff" fill-rule="evenodd"/>
    <path id="Path_4671" data-name="Path 4671" d="M174,154.7a5.014,5.014,0,0,1,2.832-.848c1.013.14,1.938,1.461.867,2.27-1.02.77-3.328-1.112-3.7-1.422" transform="translate(-702.793 -78.304)" fill="#fff" fill-rule="evenodd"/>
    <path id="Path_4672" data-name="Path 4672" d="M182.81,150.308a8.8,8.8,0,0,1,1.746,3.2c.268,1.263-.441,2.735-1.491,1.654-1-1.03-.363-4.326-.254-4.857" transform="translate(-705.482 -77.191)" fill="#fff" fill-rule="evenodd"/>
    <path id="Path_4673" data-name="Path 4673" d="M177.2,158.888a5.786,5.786,0,0,1,2.757-1.734A1.336,1.336,0,0,1,181.3,159.3c-.9,1.117-3.652-.193-4.1-.413" transform="translate(-703.805 -79.349)" fill="#fff" fill-rule="evenodd"/>
    <path id="Path_4674" data-name="Path 4674" d="M186.179,152.681a8.68,8.68,0,0,1,2.142,3.158c.4,1.318-.218,3.034-1.431,2.049-1.154-.938-.779-4.613-.712-5.207" transform="translate(-706.606 -77.941)" fill="#fff" fill-rule="evenodd"/>
    <path id="Path_4675" data-name="Path 4675" d="M181.124,162.318a6.116,6.116,0,0,1,2.805-1.933,1.376,1.376,0,0,1,1.453,2.174c-.9,1.2-3.792-.033-4.258-.241" transform="translate(-705.044 -80.366)" fill="#fff" fill-rule="evenodd"/>
    <path id="Path_4676" data-name="Path 4676" d="M186.246,152.534c-5.057-4.09-11.808-7.082-13.587-15.935a16.843,16.843,0,0,1,1.658-11.142,19.2,19.2,0,0,0-1.693,6.3,15.845,15.845,0,0,0,2.8,10.693,22.158,22.158,0,0,0,2.915,3.481,51.191,51.191,0,0,0,8.161,5.97c-.19.322-.07.309-.26.63" transform="translate(-702.27 -69.342)" fill="#fff" fill-rule="evenodd"/>
    <path id="Path_4677" data-name="Path 4677" d="M219.107,120.787a4.768,4.768,0,0,1,1.823,1.693c.414.82.155,2.145-.8,1.741-.905-.385-1.014-3.009-1.028-3.434" transform="translate(-717.041 -67.867)" fill="#fff" fill-rule="evenodd"/>
    <path id="Path_4678" data-name="Path 4678" d="M223.115,122.457a5.872,5.872,0,0,1,.435,2.358c-.088.838-.82,1.593-1.252.7-.411-.854.643-2.75.817-3.054" transform="translate(-718.019 -68.395)" fill="#fff" fill-rule="evenodd"/>
    <path id="Path_4679" data-name="Path 4679" d="M218.31,126.24a4.188,4.188,0,0,0,1.428,1.609c.623.3,1.495-.155,1.079-1.064-.4-.865-2.213-.594-2.507-.545" transform="translate(-716.789 -69.565)" fill="#fff" fill-rule="evenodd"/>
    <path id="Path_4680" data-name="Path 4680" d="M224.707,125.829a6.223,6.223,0,0,1,.461,2.5c-.093.888-.87,1.688-1.327.738-.436-.905.681-2.913.865-3.236" transform="translate(-718.505 -69.46)" fill="#fff" fill-rule="evenodd"/>
    <path id="Path_4681" data-name="Path 4681" d="M219.677,129.37a4.45,4.45,0,0,0,1.514,1.706c.661.321,1.586-.164,1.145-1.127-.42-.917-2.347-.63-2.659-.578" transform="translate(-717.221 -70.552)" fill="#fff" fill-rule="evenodd"/>
    <path id="Path_4682" data-name="Path 4682" d="M225.783,129.776a7.014,7.014,0,0,1,.034,2.762c-.253.913-1.2,1.55-1.5.424-.29-1.073,1.218-2.9,1.465-3.186" transform="translate(-718.675 -70.706)" fill="#fff" fill-rule="evenodd"/>
    <path id="Path_4683" data-name="Path 4683" d="M220.139,132.3a5.3,5.3,0,0,0,1.241,2.172c.615.507,1.639.246,1.358-.872-.267-1.065-2.273-1.272-2.6-1.3" transform="translate(-717.367 -71.502)" fill="#fff" fill-rule="evenodd"/>
    <path id="Path_4684" data-name="Path 4684" d="M220.3,135.3a6.187,6.187,0,0,0,.878,2.548c.532.678,1.6.673,1.511-.547-.088-1.161-2.066-1.888-2.388-2" transform="translate(-717.418 -72.449)" fill="#fff" fill-rule="evenodd"/>
    <path id="Path_4685" data-name="Path 4685" d="M226.557,134.367a7.279,7.279,0,0,1-.818,2.776c-.523.795-1.621.993-1.565-.274.053-1.206,2.056-2.326,2.382-2.5" transform="translate(-718.641 -72.156)" fill="#fff" fill-rule="evenodd"/>
    <path id="Path_4686" data-name="Path 4686" d="M220.305,138.639a6.941,6.941,0,0,0,.554,2.828c.452.813,1.547,1.026,1.617-.262.066-1.226-1.857-2.384-2.171-2.566" transform="translate(-717.42 -73.506)" fill="#fff" fill-rule="evenodd"/>
    <path id="Path_4687" data-name="Path 4687" d="M226.493,139.1a7.688,7.688,0,0,1-1.231,2.888c-.664.772-1.873.779-1.653-.6.209-1.312,2.51-2.159,2.884-2.29" transform="translate(-718.455 -73.651)" fill="#fff" fill-rule="evenodd"/>
    <path id="Path_4688" data-name="Path 4688" d="M219.318,141.749a7.9,7.9,0,0,0,.141,3.152c.347.974,1.461,1.459,1.733.1.26-1.294-1.574-2.983-1.874-3.252" transform="translate(-717.084 -74.488)" fill="#fff" fill-rule="evenodd"/>
    <path id="Path_4689" data-name="Path 4689" d="M225.681,144.231a7.476,7.476,0,0,1-1.688,2.728c-.792.654-2.028.389-1.6-1,.409-1.319,2.884-1.68,3.286-1.732" transform="translate(-718.052 -75.272)" fill="#fff" fill-rule="evenodd"/>
    <path id="Path_4690" data-name="Path 4690" d="M218.01,144.973a8.523,8.523,0,0,0-.608,3.281c.113,1.123,1.1,2.018,1.7.724.564-1.233-.854-3.622-1.089-4" transform="translate(-716.498 -75.506)" fill="#fff" fill-rule="evenodd"/>
    <path id="Path_4691" data-name="Path 4691" d="M223.873,150.108a6.594,6.594,0,0,1-2.469,2.078c-.978.327-2.128-.489-1.3-1.732.79-1.184,3.354-.469,3.768-.346" transform="translate(-717.267 -77.025)" fill="#fff" fill-rule="evenodd"/>
    <path id="Path_4692" data-name="Path 4692" d="M215.772,147.841a8.823,8.823,0,0,0-1.172,3.309c-.07,1.214.8,2.408,1.631,1.19.788-1.16-.28-4.037-.459-4.5" transform="translate(-715.616 -76.412)" fill="#fff" fill-rule="evenodd"/>
    <path id="Path_4693" data-name="Path 4693" d="M220.835,154.7a5.014,5.014,0,0,0-2.832-.848c-1.013.14-1.938,1.461-.868,2.27,1.021.77,3.329-1.112,3.7-1.422" transform="translate(-716.267 -78.304)" fill="#fff" fill-rule="evenodd"/>
    <path id="Path_4694" data-name="Path 4694" d="M212.979,150.308a8.8,8.8,0,0,0-1.746,3.2c-.268,1.263.441,2.735,1.491,1.654,1-1.03.363-4.326.254-4.857" transform="translate(-714.536 -77.191)" fill="#fff" fill-rule="evenodd"/>
    <path id="Path_4695" data-name="Path 4695" d="M217.511,158.888a5.785,5.785,0,0,0-2.757-1.734,1.336,1.336,0,0,0-1.338,2.147c.9,1.117,3.652-.193,4.1-.413" transform="translate(-715.136 -79.349)" fill="#fff" fill-rule="evenodd"/>
    <path id="Path_4696" data-name="Path 4696" d="M209.484,152.681a8.681,8.681,0,0,0-2.142,3.158c-.4,1.318.218,3.034,1.43,2.049,1.155-.938.779-4.613.712-5.207" transform="translate(-713.287 -77.941)" fill="#fff" fill-rule="evenodd"/>
    <path id="Path_4697" data-name="Path 4697" d="M213.519,162.318a6.117,6.117,0,0,0-2.806-1.933,1.376,1.376,0,0,0-1.453,2.174c.9,1.2,3.792-.033,4.258-.241" transform="translate(-713.828 -80.366)" fill="#fff" fill-rule="evenodd"/>
    <path id="Path_4698" data-name="Path 4698" d="M203.974,152.534c5.057-4.09,11.808-7.082,13.587-15.935a16.843,16.843,0,0,0-1.658-11.142,19.2,19.2,0,0,1,1.693,6.3,15.849,15.849,0,0,1-2.8,10.693,22.157,22.157,0,0,1-2.915,3.481,51.191,51.191,0,0,1-8.161,5.97c.19.322.07.309.26.63" transform="translate(-712.179 -69.342)" fill="#fff" fill-rule="evenodd"/>
    <path id="Path_4699" data-name="Path 4699" d="M187.134,107.976c7.653.451,14.083,4.237,23.768,2.175,3.3,23.563-7.552,38.1-23.768,47.694-16.217-9.6-27.068-24.131-23.768-47.694,9.685,2.062,16.116-1.724,23.768-2.174Z" transform="translate(-699.249 -63.821)" fill="none" stroke="#816574" stroke-miterlimit="2.613" stroke-width="1" fill-rule="evenodd"/>
    <path id="Path_4700" data-name="Path 4700" d="M197.779,109.891l.548,1.506,1.6.056-1.263.987.442,1.541-1.329-.9-1.329.9.442-1.541-1.263-.987,1.6-.056Z" transform="translate(-709.626 -64.426)" fill="#fff" fill-rule="evenodd"/>
    <path id="Path_4701" data-name="Path 4701" d="M205.344,111.807l.1,1.255,1.2.378-1.164.483.012,1.26-.819-.957-1.195.4.657-1.075-.751-1.013,1.225.294Z" transform="translate(-712.076 -65.031)" fill="#fff" fill-rule="evenodd"/>
    <path id="Path_4702" data-name="Path 4702" d="M211.548,113.847l.027,1.038.973.364-.979.346-.046,1.037-.631-.824-1,.277.588-.855-.573-.866,1,.3Z" transform="translate(-714.13 -65.675)" fill="#fff" fill-rule="evenodd"/>
    <path id="Path_4703" data-name="Path 4703" d="M216.31,117.346l-.071.817.731.372-.8.185-.129.81-.422-.7-.81.129.539-.618-.373-.731.755.321Z" transform="translate(-715.684 -66.78)" fill="#fff" fill-rule="evenodd"/>
    <path id="Path_4704" data-name="Path 4704" d="M190.382,111.545l-.1,1.255-1.2.378,1.164.484-.012,1.26.819-.958,1.195.4-.658-1.075.751-1.012-1.225.294Z" transform="translate(-707.557 -64.948)" fill="#fff" fill-rule="evenodd"/>
    <path id="Path_4705" data-name="Path 4705" d="M184.456,113.585l-.027,1.038-.972.364.978.346.046,1.037.631-.824,1,.277-.588-.856.573-.865-1,.295-.647-.812Z" transform="translate(-705.781 -65.592)" fill="#fff" fill-rule="evenodd"/>
    <path id="Path_4706" data-name="Path 4706" d="M179.923,117.084l.072.817-.731.372.8.185.128.81.422-.7.81.128-.538-.619.372-.731-.755.321-.58-.58Z" transform="translate(-704.457 -66.698)" fill="#fff" fill-rule="evenodd"/>
    <path id="Path_4707" data-name="Path 4707" d="M321.319,123.814l.583-1.429a3.163,3.163,0,0,0,1.834.661c.926,0,1.387-.326,1.387-.978a1.4,1.4,0,0,0-.326-.876,4.167,4.167,0,0,0-1.348-.935,6.557,6.557,0,0,1-1.375-.851,2.313,2.313,0,0,1-.545-.795,2.631,2.631,0,0,1-.191-1.017,2.238,2.238,0,0,1,.755-1.727,2.76,2.76,0,0,1,1.935-.686,3.589,3.589,0,0,1,2.26.582l-.48,1.372a2.939,2.939,0,0,0-1.749-.6,1.172,1.172,0,0,0-.846.29,1.01,1.01,0,0,0-.3.757q0,.772,1.689,1.606a5.477,5.477,0,0,1,1.283.811,2.481,2.481,0,0,1,.6.863,2.815,2.815,0,0,1,.207,1.1,2.22,2.22,0,0,1-.852,1.794,3.457,3.457,0,0,1-2.28.7,4.028,4.028,0,0,1-2.241-.648Zm8.34-7.065v2.1h2.932V120.2h-2.932v2.689h4.021v1.416h-5.6v-8.975h5.665v1.416h-4.089Zm11.562-.937-.649,1.316a2.3,2.3,0,0,0-1.695-.532,2.181,2.181,0,0,0-1.817.939,3.85,3.85,0,0,0-.71,2.38,3.63,3.63,0,0,0,.658,2.286,2.106,2.106,0,0,0,1.753.845,2.354,2.354,0,0,0,1.964-.905l.732,1.286a3.667,3.667,0,0,1-2.822,1.035,3.548,3.548,0,0,1-2.89-1.238,5.114,5.114,0,0,1-1.03-3.375,4.946,4.946,0,0,1,1.143-3.33,3.665,3.665,0,0,1,2.921-1.338A4.217,4.217,0,0,1,341.221,115.812Zm1.507-.479H344.3v6.083a1.625,1.625,0,0,0,.436,1.177,1.592,1.592,0,0,0,1.2.452,1.865,1.865,0,0,0,1.329-.443,1.578,1.578,0,0,0,.475-1.215v-6.054h1.576v6.176a2.7,2.7,0,0,1-.918,2.168,3.645,3.645,0,0,1-2.45.784,3.413,3.413,0,0,1-2.384-.765,2.825,2.825,0,0,1-.839-2.194Zm13.409,8.975L353.77,120.6q-.356-.006-1-.044v3.749h-1.635v-8.975c.089,0,.43-.014,1.025-.046s1.071-.047,1.435-.047q3.38,0,3.38,2.648a2.454,2.454,0,0,1-.467,1.452,2.524,2.524,0,0,1-1.174.924l2.621,4.044Zm-3.367-7.591v2.492c.291.025.514.038.668.038a2.832,2.832,0,0,0,1.443-.282,1.184,1.184,0,0,0,.459-1.1.955.955,0,0,0-.492-.924,3.413,3.413,0,0,0-1.544-.263A3.951,3.951,0,0,0,352.77,116.718Zm5.973,7.591v-8.975h1.575v8.975Zm7.032-7.56v7.56H364.2v-7.56h-2.822v-1.416h7.345v1.416Zm7.668,3.878v3.682h-1.575v-3.682l-2.992-5.293h1.671l2.1,3.829,2.107-3.829h1.666Z" transform="translate(-749.324 -66.096)" fill="#294368"/>
    <path id="Path_4708" data-name="Path 4708" d="M294.875,122.925l-1.364,3.47q-1.944-1.423-6.124-1.42a7.322,7.322,0,0,0-6.283,3.367,14.792,14.792,0,0,0-2.362,8.687,13.087,13.087,0,0,0,2.425,8.23,8.105,8.105,0,0,0,12.69.194l2.237,3.1a12.351,12.351,0,0,1-9.1,3.512,11.089,11.089,0,0,1-9.172-4.2q-3.346-4.209-3.353-11.084a16.968,16.968,0,0,1,3.575-11.056,11.344,11.344,0,0,1,9.234-4.405A15.106,15.106,0,0,1,294.875,122.925Zm17.858,26.143q-2.316,2.9-7.08,2.9a6.121,6.121,0,0,1-4.44-1.857,6.258,6.258,0,0,1-1.877-4.62,6.905,6.905,0,0,1,2.9-5.59,11.521,11.521,0,0,1,7.377-2.286,8.772,8.772,0,0,1,2.757.527q0-5.269-4.7-5.272a7.5,7.5,0,0,0-5.563,1.947l-1.628-3.228a9.672,9.672,0,0,1,3.034-1.53,11.739,11.739,0,0,1,3.706-.638q4.728,0,6.872,2.148t2.141,6.844v7.793c0,1.9.568,3.179,1.7,3.81v1.932a7.272,7.272,0,0,1-3.519-.672A3.763,3.763,0,0,1,312.733,149.068Zm-.367-8.181a14.161,14.161,0,0,0-2.556-.408,7.325,7.325,0,0,0-4.767,1.5,4.474,4.474,0,0,0-1.849,3.554q0,3.387,4,3.387a6.574,6.574,0,0,0,5.175-2.778Zm35.086,10.676V137.8q0-5.133-4.44-5.14a4.445,4.445,0,0,0-2.619.865,4.545,4.545,0,0,0-1.662,1.961v16.071h-3.858V136.114a3.007,3.007,0,0,0-1.205-2.522,5.137,5.137,0,0,0-3.2-.928,4.438,4.438,0,0,0-2.466.894,5.448,5.448,0,0,0-1.856,1.974v16.03h-3.852V129.825h2.515l1.275,2.521a6.767,6.767,0,0,1,5.583-2.923q4.665,0,6.532,2.9a5,5,0,0,1,2.418-2.072,8.444,8.444,0,0,1,3.629-.831,6.742,6.742,0,0,1,5.217,1.995,7.969,7.969,0,0,1,1.849,5.611v14.533Zm13.19-1.2v9.719h-3.852V129.825h3.852v1.787a7.217,7.217,0,0,1,5.3-2.189,9.153,9.153,0,0,1,7.2,2.882q2.577,2.879,2.576,8.438a12.261,12.261,0,0,1-2.6,8.091q-2.6,3.138-7.509,3.138a9.96,9.96,0,0,1-2.951-.492A3.891,3.891,0,0,1,360.642,150.364Zm0-15.85v12.663a3.454,3.454,0,0,0,1.545,1.046,5.833,5.833,0,0,0,2.293.5q7.181,0,7.184-8.119,0-4.124-1.7-6.027t-5.459-1.912a4.849,4.849,0,0,0-1.988.568A6.654,6.654,0,0,0,360.642,134.514Zm22.957-4.689v13.861q0,5.04,4.364,5.036a6.038,6.038,0,0,0,3.491-1.095,5.247,5.247,0,0,0,2.085-2.542v-15.26H397.4v21.738H393.54v-3.007a6.012,6.012,0,0,1-2.605,2.349,8.045,8.045,0,0,1-3.824,1.067,7.1,7.1,0,0,1-5.472-2.05,8.3,8.3,0,0,1-1.9-5.826V129.825Zm17.63,20.435,1.364-3.651q3.221,2.11,5.2,2.113,3.564,0,3.568-3.006,0-2.151-3.45-3.692a27.813,27.813,0,0,1-3.582-1.849,7.771,7.771,0,0,1-1.6-1.427,5.7,5.7,0,0,1-1.019-1.7,5.567,5.567,0,0,1-.333-1.94,5,5,0,0,1,1.946-4.184,8.154,8.154,0,0,1,5.1-1.5,16.442,16.442,0,0,1,5.985,1.5l-1.095,3.575a7.392,7.392,0,0,0-4.606-1.829,4.038,4.038,0,0,0-2.327.651,1.939,1.939,0,0,0-.942,1.649,3.421,3.421,0,0,0,2.375,3.166l2.758,1.253a9.7,9.7,0,0,1,3.692,2.639,5.825,5.825,0,0,1,1.157,3.713,5.548,5.548,0,0,1-2.05,4.579,8.807,8.807,0,0,1-5.681,1.656,12.881,12.881,0,0,1-6.456-1.711" transform="translate(-734.529 -68.037)" fill="#294368"/>
    <path id="Path_4709" data-name="Path 4709" d="M195.384,165.491l1.747-1.309v-1.853l-2.636,1.977Z" transform="translate(-709.268 -80.988)" fill="#fff"/>
    <path id="Path_4710" data-name="Path 4710" d="M200.094,165.491l-1.746-1.31v-1.853l2.636,1.977Z" transform="translate(-710.484 -80.988)" fill="#fff"/>
    <path id="Path_4711" data-name="Path 4711" d="M195.384,169.728l1.747-1.309v-1.853l-2.636,1.977Z" transform="translate(-709.268 -82.326)" fill="#fff"/>
    <path id="Path_4712" data-name="Path 4712" d="M200.094,169.728l-1.746-1.309v-1.853l2.635,1.977Z" transform="translate(-710.484 -82.326)" fill="#fff"/>
    <path id="Path_4713" data-name="Path 4713" d="M195.384,173.7l1.747-1.31v-1.853l-2.636,1.977Z" transform="translate(-709.268 -83.58)" fill="#fff"/>
    <path id="Path_4714" data-name="Path 4714" d="M200.094,173.7l-1.746-1.31v-1.853l2.635,1.977Z" transform="translate(-710.484 -83.58)" fill="#fff"/>
    <path id="Path_4715" data-name="Path 4715" d="M167.684,113.99l.355,1.148.962-.72-.387,1.138,1.2-.017-.982.692.982.692-1.2-.017.387,1.138-.962-.72-.355,1.149-.355-1.148-.962.72.388-1.137-1.2.016.982-.692-.982-.693,1.2.017-.387-1.138.962.72Z" transform="translate(-700.126 -65.72)" fill="#fff" fill-rule="evenodd"/>
    <path id="Path_4716" data-name="Path 4716" d="M226.84,113.99l.355,1.148.963-.72-.388,1.138,1.2-.017-.982.692.982.692-1.2-.017.388,1.138-.962-.72-.356,1.149-.354-1.148-.963.72.388-1.137-1.2.016.982-.692-.982-.693,1.2.017-.387-1.138.962.72Z" transform="translate(-718.811 -65.72)" fill="#fff" fill-rule="evenodd"/>
  </g>
</svg>
