<svg xmlns="http://www.w3.org/2000/svg" xmlns:xlink="http://www.w3.org/1999/xlink" width="24" height="24" viewBox="0 0 24 24">
  <defs>
    <clipPath id="clip-path">
      <rect id="Rectangle_13016" data-name="Rectangle 13016" width="24" height="24" transform="translate(595 5045)" fill="#2a4369" stroke="#707070" stroke-width="1"/>
    </clipPath>
  </defs>
  <g id="Mask_Group_7" data-name="Mask Group 7" transform="translate(-595 -5045)" clip-path="url(#clip-path)">
    <g id="twitter" transform="translate(595 5047.25)">
      <g id="Group_39" data-name="Group 39">
        <path id="Path_158" data-name="Path 158" d="M24,4.933a10.258,10.258,0,0,1-2.835.777,4.893,4.893,0,0,0,2.165-2.72,9.833,9.833,0,0,1-3.12,1.191A4.92,4.92,0,0,0,11.7,7.547a5.066,5.066,0,0,0,.114,1.122A13.927,13.927,0,0,1,1.671,3.522,4.922,4.922,0,0,0,3.183,10.1,4.859,4.859,0,0,1,.96,9.492v.054A4.943,4.943,0,0,0,4.9,14.38a4.911,4.911,0,0,1-1.29.162,4.35,4.35,0,0,1-.932-.084,4.967,4.967,0,0,0,4.6,3.428,9.886,9.886,0,0,1-6.1,2.1A9.215,9.215,0,0,1,0,19.917a13.852,13.852,0,0,0,7.548,2.208,13.907,13.907,0,0,0,14-14c0-.217-.007-.427-.018-.636A9.816,9.816,0,0,0,24,4.933Z" transform="translate(0 -2.625)" fill="#2a4369"/>
      </g>
    </g>
  </g>
</svg>
